ffmpeg version 3.4.8-0ubuntu0.2 Copyright (c) 2000-2020 the FFmpeg developers
  built with gcc 7 (Ubuntu 7.5.0-3ubuntu1~18.04)
  configuration: --prefix=/usr --extra-version=0ubuntu0.2 --toolchain=hardened --libdir=/usr/lib/x86_64-linux-gnu --incdir=/usr/include/x86_64-linux-gnu --enable-gpl --disable-stripping --enable-avresample --enable-avisynth --enable-gnutls --enable-ladspa --enable-libass --enable-libbluray --enable-libbs2b --enable-libcaca --enable-libcdio --enable-libflite --enable-libfontconfig --enable-libfreetype --enable-libfribidi --enable-libgme --enable-libgsm --enable-libmp3lame --enable-libmysofa --enable-libopenjpeg --enable-libopenmpt --enable-libopus --enable-libpulse --enable-librubberband --enable-librsvg --enable-libshine --enable-libsnappy --enable-libsoxr --enable-libspeex --enable-libssh --enable-libtheora --enable-libtwolame --enable-libvorbis --enable-libvpx --enable-libwavpack --enable-libwebp --enable-libx265 --enable-libxml2 --enable-libxvid --enable-libzmq --enable-libzvbi --enable-omx --enable-openal --enable-opengl --enable-sdl2 --enable-libdc1394 --enable-libdrm --enable-libiec61883 --enable-chromaprint --enable-frei0r --enable-libopencv --enable-libx264 --enable-shared
  libavutil      55. 78.100 / 55. 78.100
  libavcodec     57.107.100 / 57.107.100
  libavformat    57. 83.100 / 57. 83.100
  libavdevice    57. 10.100 / 57. 10.100
  libavfilter     6.107.100 /  6.107.100
  libavresample   3.  7.  0 /  3.  7.  0
  libswscale      4.  8.100 /  4.  8.100
  libswresample   2.  9.100 /  2.  9.100
  libpostproc    54.  7.100 / 54.  7.100
[rawvideo @ 0x561ec9637a20] Estimating duration from bitrate, this may be inaccurate
Input #0, rawvideo, from '../../SVC-Encoder-20220109T061506Z-001/SVC-Encoder/Dataset/RollerCoaster/6f_2x2/tile_yuv/f3_t2_480x480.yuv':
  Duration: 00:00:10.00, start: 0.000000, bitrate: 82944 kb/s
    Stream #0:0: Video: rawvideo (I420 / 0x30323449), yuv420p, 480x480, 82944 kb/s, 30 tbr, 30 tbn, 30 tbc
Stream mapping:
  Stream #0:0 -> #0:0 (rawvideo (native) -> h264 (libx264))
Press [q] to stop, [?] for help
[libx264 @ 0x561ec9644c60] using cpu capabilities: MMX2 SSE2Fast LZCNT SSSE3 SSE4.2 AVX
[libx264 @ 0x561ec9644c60] profile High, level 3.0
Output #0, rawvideo, to 'RollerCoaster_f3_t2_480x480_x264_QP_36.h264':
  Metadata:
    encoder         : Lavf57.83.100
    Stream #0:0: Video: h264 (libx264), yuv420p, 480x480, q=-1--1, 30 fps, 30 tbn, 30 tbc
    Metadata:
      encoder         : Lavc57.107.100 libx264
    Side data:
      cpb: bitrate max/min/avg: 0/0/0 buffer size: 0 vbv_delay: -1
frame=  214 fps=0.0 q=42.0 PSNR=Y:nan U:nan V:nan *:nan size=      31kB time=00:00:05.70 bitrate=  44.5kbits/s speed=11.4x    frame=  300 fps=0.0 q=42.0 LPSNR=Y:inf U:inf V:inf *:inf size=      51kB time=00:00:09.93 bitrate=  42.5kbits/s speed=13.3x    
video:51kB audio:0kB subtitle:0kB other streams:0kB global headers:0kB muxing overhead: 0.000000%
[libx264 @ 0x561ec9644c60] frame I:2     Avg QP:33.64  size:  8357  PSNR Mean Y:38.08 U:43.69 V:41.50 Avg:39.11 Global:39.02
[libx264 @ 0x561ec9644c60] frame P:77    Avg QP:34.79  size:   280  PSNR Mean Y:36.82 U:43.04 V:40.99 Avg:37.95 Global:37.94
[libx264 @ 0x561ec9644c60] frame B:221   Avg QP:41.45  size:    66  PSNR Mean Y:36.69 U:43.04 V:40.99 Avg:37.84 Global:37.82
[libx264 @ 0x561ec9644c60] consecutive B-frames:  0.7%  2.7%  2.0% 94.7%
[libx264 @ 0x561ec9644c60] mb I  I16..4: 43.3% 42.5% 14.2%
[libx264 @ 0x561ec9644c60] mb P  I16..4:  0.2%  0.1%  0.0%  P16..4: 13.5%  0.7%  0.1%  0.0%  0.0%    skip:85.4%
[libx264 @ 0x561ec9644c60] mb B  I16..4:  0.0%  0.0%  0.0%  B16..8:  5.1%  0.0%  0.0%  direct: 0.0%  skip:94.9%  L0:44.5% L1:55.4% BI: 0.0%
[libx264 @ 0x561ec9644c60] 8x8 transform intra:42.1% inter:88.7%
[libx264 @ 0x561ec9644c60] coded y,uvDC,uvAC intra: 37.9% 51.6% 17.4% inter: 0.3% 0.3% 0.0%
[libx264 @ 0x561ec9644c60] i16 v,h,dc,p: 44% 34% 12% 10%
[libx264 @ 0x561ec9644c60] i8 v,h,dc,ddl,ddr,vr,hd,vl,hu: 19% 21% 25%  6%  4%  4%  5%  6% 10%
[libx264 @ 0x561ec9644c60] i4 v,h,dc,ddl,ddr,vr,hd,vl,hu: 26% 22% 15%  8%  4%  4%  5%  8%  7%
[libx264 @ 0x561ec9644c60] i8c dc,h,v,p: 56% 18% 19%  7%
[libx264 @ 0x561ec9644c60] Weighted P-Frames: Y:2.6% UV:0.0%
[libx264 @ 0x561ec9644c60] ref P L0: 56.3% 18.7% 17.0%  7.9%  0.1%
[libx264 @ 0x561ec9644c60] ref B L0: 59.4% 32.8%  7.7%
[libx264 @ 0x561ec9644c60] ref B L1: 70.7% 29.3%
[libx264 @ 0x561ec9644c60] PSNR Mean Y:36.735 U:43.040 V:40.990 Avg:37.879 Global:37.858 kb/s:42.18
